<svg width="32" height="32" viewBox="0 0 32 32" fill="none" xmlns="http://www.w3.org/2000/svg">
<path d="M22.9332 29.3334C26.4678 29.3334 29.3332 26.4681 29.3332 22.9334C29.3332 19.3988 26.4678 16.5334 22.9332 16.5334C19.3986 16.5334 16.5332 19.3988 16.5332 22.9334C16.5332 26.4681 19.3986 29.3334 22.9332 29.3334Z" stroke="black" stroke-width="1.5" stroke-miterlimit="10" stroke-linecap="round" stroke-linejoin="round"/>
<path d="M25.3197 23.0134H20.5464" stroke="black" stroke-width="1.5" stroke-miterlimit="10" stroke-linecap="round" stroke-linejoin="round"/>
<path d="M22.9331 20.6802V25.4668" stroke="black" stroke-width="1.5" stroke-miterlimit="10" stroke-linecap="round" stroke-linejoin="round"/>
<path d="M29.3332 11.5867C29.3332 14.2133 28.6532 16.5333 27.5865 18.5466C26.4132 17.3066 24.7599 16.5334 22.9332 16.5334C19.3999 16.5334 16.5332 19.4 16.5332 22.9333C16.5332 24.5733 17.1598 26.0667 18.1732 27.2C17.6798 27.4267 17.2265 27.6133 16.8265 27.7467C16.3732 27.9067 15.6265 27.9067 15.1732 27.7467C11.3065 26.4267 2.6665 20.92 2.6665 11.5867C2.6665 7.46667 5.9865 4.1333 10.0798 4.1333C12.4932 4.1333 14.6532 5.30669 15.9998 7.10669C17.3465 5.30669 19.5065 4.1333 21.9198 4.1333C26.0132 4.1333 29.3332 7.46667 29.3332 11.5867Z" stroke="black" stroke-width="1.5" stroke-linecap="round" stroke-linejoin="round"/>
</svg>
